<svg width="260" height="49" viewBox="0 0 260 49" fill="none" xmlns="http://www.w3.org/2000/svg">
<path d="M16.4914 7.28858C18.2371 7.28858 19.7228 7.34429 20.9114 7.47429C22.1 7.60429 23.1214 7.93858 23.9386 8.49572C24.6443 8.96001 25.1457 9.59144 25.48 10.39C25.8143 11.2071 25.9814 12.2471 25.9814 13.5286V17.8557C25.9814 19.1186 25.8143 20.1586 25.48 20.9757C25.1457 21.7743 24.6443 22.4243 23.9386 22.8886C23.14 23.4271 22.1557 23.7614 20.9857 23.8914C19.8343 24.0214 18.33 24.0957 16.4914 24.0957H11.05V34.1429L13.5386 37.17V37.5229H1.24428V37.17L3.56571 34.1429V10.6686L1.24428 7.62286V7.28858H16.4914ZM16.4914 20.7157C16.9928 20.7157 17.3457 20.6786 17.55 20.6043C17.7728 20.53 17.9586 20.4 18.1257 20.1957C18.3671 19.8429 18.4971 19.0629 18.4971 17.8557V13.5286C18.4971 12.3029 18.3671 11.5229 18.1257 11.1886C17.9586 10.9843 17.7728 10.8357 17.55 10.7614C17.3457 10.6872 16.9928 10.6686 16.4914 10.6686H11.05V20.7157H16.4914ZM28.1914 16.8157H38.4057C39.8543 16.8157 41.08 16.8714 42.0643 16.9643C43.0671 17.0571 43.9028 17.3357 44.5714 17.7629C45.7414 18.4871 46.3171 19.8429 46.3171 21.83V23.5757H39.4086V21.83C39.4086 21.1243 39.3343 20.66 39.2043 20.4557C39.13 20.3443 39.0186 20.27 38.9071 20.2329C38.7957 20.2143 38.6286 20.1957 38.4057 20.1957H37.1614V34.1429L39.4457 37.17V37.5229H28.1914V37.17L30.2714 34.1429V20.1957L28.1914 17.15V16.8157ZM48.8057 24.2257C48.8057 22.0529 49.1214 20.4371 49.7528 19.3971C50.3657 18.3386 51.2943 17.6514 52.5014 17.3171C53.69 16.9829 55.38 16.8157 57.5528 16.8157H60.71C62.3443 16.8157 63.7186 16.89 64.8143 17.0757C65.9286 17.2429 66.8571 17.6514 67.6 18.2829C68.3057 18.8586 68.7886 19.6014 69.0486 20.4743C69.3086 21.3471 69.4386 22.61 69.4386 24.2257V30.1129C69.4386 31.7286 69.3086 32.9914 69.0486 33.8643C68.7886 34.7371 68.3057 35.48 67.6 36.0557C66.8571 36.6871 65.9286 37.0957 64.8143 37.2629C63.7186 37.43 62.3443 37.5229 60.71 37.5229H57.5528C55.38 37.5229 53.69 37.3557 52.5014 37.0214C51.2943 36.6871 50.3657 36 49.7528 34.9414C49.1214 33.9014 48.8057 32.2857 48.8057 30.1129V24.2257ZM55.7143 30.1129C55.7143 31.7657 55.8443 32.88 56.1228 33.4557C56.2343 33.7157 56.4014 33.9014 56.6243 33.9943C56.8471 34.0871 57.1628 34.1429 57.5528 34.1429H60.71C61.1 34.1429 61.3971 34.0871 61.62 33.9943C61.8428 33.9014 62.0286 33.7343 62.1586 33.4929C62.4186 32.9729 62.53 31.84 62.53 30.1129V24.2257C62.53 22.48 62.4186 21.3843 62.1586 20.8829C61.9171 20.4186 61.4343 20.1957 60.71 20.1957H57.5528C56.9028 20.1957 56.4386 20.4186 56.1228 20.8457C55.8443 21.4771 55.7143 22.61 55.7143 24.2257V30.1129ZM98.2986 16.8157C100.434 16.8157 102.087 16.9829 103.276 17.3171C104.446 17.6514 105.337 18.3386 105.95 19.4157C106.563 20.4743 106.86 22.09 106.86 24.2257V34.1429L108.94 37.17V37.5229H97.89V37.17L99.97 34.1429V24.2257C99.97 22.5171 99.84 21.3843 99.5986 20.8457C99.3386 20.4186 98.9114 20.1957 98.2986 20.1957H93.7671V34.1429L95.6428 37.17V37.5229H84.9828V37.17L86.8586 34.1429V20.1957H80.6743V34.1429L82.7543 37.17V37.5229H71.6857V37.17L73.7657 34.1429V20.1957L71.6857 17.15V16.8157H98.2986ZM110.203 24.2257C110.203 22.0529 110.481 20.4371 111.076 19.3971C111.651 18.3386 112.524 17.6514 113.694 17.3171C114.846 16.9829 116.517 16.8157 118.671 16.8157H123.091V8.49572L121.011 5.45001V5.11572H129.981V34.1429L132.061 37.17V37.5229H118.671C116.517 37.5229 114.846 37.3557 113.694 37.0214C112.524 36.6871 111.651 36 111.076 34.9414C110.481 33.9014 110.203 32.2857 110.203 30.1129V24.2257ZM117.093 30.1129C117.093 31.84 117.223 32.9729 117.464 33.4929C117.576 33.7343 117.724 33.9014 117.91 33.9943C118.096 34.0871 118.337 34.1429 118.671 34.1429H123.091V20.1957H118.671C118.337 20.1957 118.096 20.2514 117.91 20.3443C117.724 20.4371 117.576 20.6043 117.464 20.8457C117.223 21.3657 117.093 22.48 117.093 24.2257V30.1129ZM142.294 37.5229C140.196 37.5229 138.561 37.3743 137.391 37.0957C136.221 36.7986 135.311 36.1671 134.661 35.1829C134.011 34.1986 133.696 32.6943 133.696 30.6329V24.7457C133.696 22.48 133.974 20.79 134.55 19.6757C135.107 18.5429 135.999 17.7814 137.187 17.3914C138.376 17.0014 140.084 16.8157 142.294 16.8157H145.284C146.9 16.8157 148.256 16.9086 149.333 17.0943C150.41 17.28 151.339 17.7257 152.119 18.4129C152.806 19.0443 153.27 19.8243 153.53 20.7343C153.771 21.6443 153.901 22.9814 153.901 24.7457V28.46H140.586V30.6329C140.586 32.1371 140.716 33.1029 140.976 33.53C141.106 33.7714 141.273 33.92 141.459 34.0129C141.663 34.1057 141.941 34.1429 142.294 34.1429H145.284C145.656 34.1429 145.953 34.1243 146.194 34.1057C146.417 34.0686 146.603 34.0129 146.751 33.92C146.807 33.9571 146.863 33.8829 146.919 33.7157C146.974 33.53 146.993 33.3443 146.993 33.1029V31.7657H153.901V33.1029C153.901 33.9386 153.734 34.6629 153.4 35.2943C153.066 35.9071 152.601 36.3714 151.989 36.65C151.246 37.04 150.317 37.2814 149.203 37.3743C148.089 37.4671 146.789 37.5229 145.284 37.5229H142.294ZM141.013 20.9757C140.734 21.57 140.586 22.8329 140.586 24.7457V25.08H146.993V24.7457C146.993 22.9443 146.863 21.7 146.584 20.9757C146.361 20.4557 145.934 20.1957 145.284 20.1957H142.294C141.663 20.1957 141.236 20.4557 141.013 20.9757ZM168.164 32.88L172.491 20.1957L170.95 17.15V16.8157H177.989V17.15L176.187 20.1957L170.337 37.5229H162.463L156.613 20.1957L154.811 17.15V16.8157H165.379V17.15L163.837 20.1957L168.164 32.88ZM188.166 37.5229C186.067 37.5229 184.433 37.3743 183.263 37.0957C182.093 36.7986 181.183 36.1671 180.533 35.1829C179.883 34.1986 179.567 32.6943 179.567 30.6329V24.7457C179.567 22.48 179.846 20.79 180.421 19.6757C180.979 18.5429 181.87 17.7814 183.059 17.3914C184.247 17.0014 185.956 16.8157 188.166 16.8157H191.156C192.771 16.8157 194.127 16.9086 195.204 17.0943C196.281 17.28 197.21 17.7257 197.99 18.4129C198.677 19.0443 199.141 19.8243 199.401 20.7343C199.643 21.6443 199.773 22.9814 199.773 24.7457V28.46H186.457V30.6329C186.457 32.1371 186.587 33.1029 186.847 33.53C186.977 33.7714 187.144 33.92 187.33 34.0129C187.534 34.1057 187.813 34.1429 188.166 34.1429H191.156C191.527 34.1429 191.824 34.1243 192.066 34.1057C192.289 34.0686 192.474 34.0129 192.623 33.92C192.679 33.9571 192.734 33.8829 192.79 33.7157C192.846 33.53 192.864 33.3443 192.864 33.1029V31.7657H199.773V33.1029C199.773 33.9386 199.606 34.6629 199.271 35.2943C198.937 35.9071 198.473 36.3714 197.86 36.65C197.117 37.04 196.189 37.2814 195.074 37.3743C193.96 37.4671 192.66 37.5229 191.156 37.5229H188.166ZM186.884 20.9757C186.606 21.57 186.457 22.8329 186.457 24.7457V25.08H192.864V24.7457C192.864 22.9443 192.734 21.7 192.456 20.9757C192.233 20.4557 191.806 20.1957 191.156 20.1957H188.166C187.534 20.1957 187.107 20.4557 186.884 20.9757ZM201.723 5.11572H210.711V34.1429L212.791 37.17V37.5229H201.723V37.17L203.803 34.1429V8.49572L201.723 5.45001V5.11572ZM214.704 24.2257C214.704 22.0529 215.02 20.4371 215.633 19.3971C216.264 18.3386 217.174 17.6514 218.381 17.3171C219.589 16.9829 221.279 16.8157 223.433 16.8157H226.59C228.224 16.8157 229.599 16.89 230.713 17.0757C231.827 17.2429 232.756 17.6514 233.499 18.2829C234.186 18.8586 234.669 19.6014 234.929 20.4743C235.207 21.3471 235.337 22.61 235.337 24.2257V30.1129C235.337 31.7286 235.207 32.9914 234.929 33.8643C234.669 34.7371 234.186 35.48 233.499 36.0557C232.756 36.6871 231.827 37.0957 230.713 37.2629C229.599 37.43 228.224 37.5229 226.59 37.5229H223.433C221.279 37.5229 219.589 37.3557 218.381 37.0214C217.174 36.6871 216.264 36 215.633 34.9414C215.02 33.9014 214.704 32.2857 214.704 30.1129V24.2257ZM221.613 30.1129C221.613 31.7657 221.743 32.88 222.021 33.4557C222.133 33.7157 222.3 33.9014 222.523 33.9943C222.746 34.0871 223.043 34.1429 223.433 34.1429H226.59C226.98 34.1429 227.296 34.0871 227.519 33.9943C227.741 33.9014 227.909 33.7343 228.057 33.4929C228.299 32.9729 228.429 31.84 228.429 30.1129V24.2257C228.429 22.48 228.299 21.3843 228.057 20.8829C227.797 20.4186 227.314 20.1957 226.59 20.1957H223.433C222.801 20.1957 222.319 20.4186 222.021 20.8457C221.743 21.4771 221.613 22.61 221.613 24.2257V30.1129ZM249.433 16.8157C251.68 16.8157 253.426 16.9643 254.707 17.2614C255.989 17.5771 256.973 18.2457 257.697 19.3043C258.421 20.3629 258.793 21.9971 258.793 24.2257V30.1129C258.793 32.3414 258.421 33.9757 257.697 35.0343C256.973 36.0929 255.989 36.7614 254.726 37.0771C253.463 37.3743 251.699 37.5229 249.433 37.5229H245.886V42.8157L247.966 45.8429V46.1957H236.916V45.8429L238.996 42.8157V20.1957L236.916 17.15V16.8157H249.433ZM249.433 34.1429C250.009 34.1429 250.436 34.1057 250.696 34.0129C250.956 33.92 251.179 33.7343 251.346 33.4557C251.699 32.8429 251.884 31.7286 251.884 30.1129V24.2257C251.884 22.48 251.699 21.3843 251.346 20.8829C251.141 20.6229 250.919 20.4371 250.659 20.3443C250.399 20.2514 249.99 20.1957 249.433 20.1957H245.886V34.1429H249.433Z" fill="black"/>
</svg>
