<svg width="119" height="98" viewBox="0 0 119 98" fill="none" xmlns="http://www.w3.org/2000/svg">
<path fill-rule="evenodd" clip-rule="evenodd" d="M26.0009 8.946C26.8222 9.32867 27.7835 9.52 28.8849 9.52C29.9862 9.52 30.9475 9.32867 31.7689 8.946C32.5902 8.56333 33.2249 8.01733 33.6729 7.308C34.1209 6.59867 34.3449 5.77267 34.3449 4.83V4.704C34.3449 3.76133 34.1209 2.93533 33.6729 2.226C33.2249 1.51667 32.5902 0.970667 31.7689 0.588C30.9475 0.196 29.9862 0 28.8849 0C27.7929 0 26.8315 0.196 26.0009 0.588C25.1795 0.970667 24.5402 1.51667 24.0829 2.226C23.6349 2.93533 23.4109 3.76133 23.4109 4.704V4.83C23.4109 5.77267 23.6349 6.59867 24.0829 7.308C24.5402 8.01733 25.1795 8.56333 26.0009 8.946ZM31.3489 6.874C30.7889 7.34067 29.9675 7.574 28.8849 7.574C27.8115 7.574 26.9855 7.34067 26.4069 6.874C25.8375 6.40733 25.5529 5.73533 25.5529 4.858V4.69C25.5529 3.81267 25.8375 3.136 26.4069 2.66C26.9855 2.184 27.8115 1.946 28.8849 1.946C29.9489 1.946 30.7655 2.184 31.3349 2.66C31.9135 3.136 32.2029 3.81267 32.2029 4.69V4.858C32.2029 5.73533 31.9182 6.40733 31.3489 6.874ZM7.91604 0.168C8.99871 0.168 9.85271 0.429334 10.478 0.952C11.1034 1.47467 11.416 2.18867 11.416 3.094V3.248C11.416 4.16267 11.1034 4.88133 10.478 5.404C9.85271 5.92667 8.99871 6.188 7.91604 6.188H4.19204V9.352H2.09204V0.168H7.91604ZM7.86004 4.326C8.31738 4.326 8.66737 4.23733 8.91004 4.06C9.15271 3.87333 9.27404 3.60267 9.27404 3.248V3.094C9.27404 2.74867 9.15271 2.48733 8.91004 2.31C8.66737 2.12333 8.31738 2.03 7.86004 2.03H4.19204V4.326H7.86004ZM22.1556 3.29C22.1556 4.03667 21.9176 4.648 21.4416 5.124C20.9749 5.6 20.3076 5.89867 19.4396 6.02L22.1136 9.03V9.352H19.7056L16.8496 6.062H14.9316V9.352H12.8316V0.168H18.6556C19.7476 0.168 20.6016 0.434 21.2176 0.966C21.8429 1.48867 22.1556 2.212 22.1556 3.136V3.29ZM20.0136 3.094C20.0136 2.74867 19.8922 2.48733 19.6496 2.31C19.4162 2.12333 19.0662 2.03 18.5996 2.03H14.9316V4.326H18.5996C19.0569 4.326 19.4069 4.23733 19.6496 4.06C19.8922 3.87333 20.0136 3.60267 20.0136 3.248V3.094ZM40.1682 9.52C38.6562 9.52 37.5082 9.24933 36.7242 8.708C35.9402 8.16667 35.5482 7.37333 35.5482 6.328V6.188H37.6202V6.328C37.6202 6.776 37.8442 7.11667 38.2922 7.35C38.7402 7.58333 39.3935 7.7 40.2522 7.7C41.0175 7.7 41.5962 7.62067 41.9882 7.462C42.3895 7.294 42.5902 7.05133 42.5902 6.734V6.636C42.5902 6.384 42.4782 6.19267 42.2542 6.062C42.0302 5.922 41.6335 5.81 41.0642 5.726L38.7262 5.39C36.7102 5.09133 35.7022 4.26067 35.7022 2.898V2.758C35.7022 1.89 36.0802 1.21333 36.8362 0.728C37.6015 0.242667 38.6702 0 40.0422 0C41.4982 0 42.6089 0.261333 43.3742 0.784C44.1395 1.30667 44.5222 2.06267 44.5222 3.052V3.178H42.4502V3.052C42.4502 2.23067 41.6475 1.82 40.0422 1.82C39.3235 1.82 38.7729 1.89467 38.3902 2.044C38.0169 2.19333 37.8302 2.41267 37.8302 2.702V2.814C37.8302 3.02867 37.9329 3.19667 38.1382 3.318C38.3529 3.43933 38.7169 3.53733 39.2302 3.612L41.5822 3.948C42.6555 4.10667 43.4442 4.396 43.9482 4.816C44.4615 5.22667 44.7182 5.80067 44.7182 6.538V6.678C44.7182 7.574 44.3215 8.274 43.5282 8.778C42.7349 9.27267 41.6149 9.52 40.1682 9.52ZM54.735 0.952C54.1097 0.429334 53.2557 0.168 52.173 0.168H46.349V9.352H48.449V6.188H52.173C53.2557 6.188 54.1097 5.92667 54.735 5.404C55.3603 4.88133 55.673 4.16267 55.673 3.248V3.094C55.673 2.18867 55.3603 1.47467 54.735 0.952ZM53.167 4.06C52.9243 4.23733 52.5743 4.326 52.117 4.326H48.449V2.03H52.117C52.5743 2.03 52.9243 2.12333 53.167 2.31C53.4097 2.48733 53.531 2.74867 53.531 3.094V3.248C53.531 3.60267 53.4097 3.87333 53.167 4.06ZM65.2505 0.168V2.016H59.1885V3.836H64.9705V5.67H59.1885V7.504H65.2505V9.352H57.0885V0.168H65.2505ZM69.1237 8.946C69.9637 9.32867 70.939 9.52 72.0497 9.52C73.0764 9.52 73.9957 9.352 74.8077 9.016C75.629 8.68 76.2684 8.218 76.7257 7.63C77.1924 7.03267 77.4257 6.36067 77.4257 5.614V5.516H75.2837V5.614C75.2837 6.202 74.9897 6.678 74.4017 7.042C73.8137 7.39667 73.0297 7.574 72.0497 7.574C70.9204 7.574 70.071 7.34533 69.5017 6.888C68.9324 6.43067 68.6477 5.75867 68.6477 4.872V4.662C68.6477 3.78467 68.9324 3.11267 69.5017 2.646C70.0804 2.17933 70.925 1.946 72.0357 1.946C72.6704 1.946 73.2304 2.03 73.7157 2.198C74.2104 2.366 74.593 2.59933 74.8637 2.898C75.1437 3.19667 75.2837 3.53733 75.2837 3.92V4.032H77.4257V3.92C77.4257 3.17333 77.1924 2.50133 76.7257 1.904C76.2684 1.30667 75.629 0.84 74.8077 0.504C73.9957 0.168 73.0764 0 72.0497 0C70.939 0 69.9637 0.196 69.1237 0.588C68.2837 0.970667 67.635 1.51667 67.1777 2.226C66.7297 2.926 66.5057 3.74733 66.5057 4.69V4.844C66.5057 5.78667 66.7297 6.61267 67.1777 7.322C67.635 8.022 68.2837 8.56333 69.1237 8.946ZM77.5759 2.058V0.168H86.8579V2.058H83.2739V9.352H81.1599V2.058H77.5759ZM96.2981 9.352V9.03L92.2242 0.168H89.9001L85.8261 9.03V9.352H87.9261L88.7662 7.448H93.3581L94.1982 9.352H96.2981ZM91.0621 2.212L92.5602 5.628H89.5641L91.0621 2.212ZM101.835 9.52C100.724 9.52 99.7487 9.32867 98.9087 8.946C98.0687 8.56333 97.4201 8.022 96.9627 7.322C96.5147 6.61267 96.2907 5.78667 96.2907 4.844V4.69C96.2907 3.74733 96.5147 2.926 96.9627 2.226C97.4201 1.51667 98.0687 0.970667 98.9087 0.588C99.7487 0.196 100.724 0 101.835 0C102.861 0 103.781 0.168 104.593 0.504C105.414 0.84 106.053 1.30667 106.511 1.904C106.977 2.50133 107.211 3.17333 107.211 3.92V4.032H105.069V3.92C105.069 3.53733 104.929 3.19667 104.649 2.898C104.378 2.59933 103.995 2.366 103.501 2.198C103.015 2.03 102.455 1.946 101.821 1.946C100.71 1.946 99.8654 2.17933 99.2867 2.646C98.7174 3.11267 98.4327 3.78467 98.4327 4.662V4.872C98.4327 5.75867 98.7174 6.43067 99.2867 6.888C99.856 7.34533 100.705 7.574 101.835 7.574C102.815 7.574 103.599 7.39667 104.187 7.042C104.775 6.678 105.069 6.202 105.069 5.614V5.516H107.211V5.614C107.211 6.36067 106.977 7.03267 106.511 7.63C106.053 8.218 105.414 8.68 104.593 9.016C103.781 9.352 102.861 9.52 101.835 9.52ZM117.275 0.49V0.168H114.993L112.179 3.878L109.365 0.168H107.083V0.49L111.129 5.782V9.352H113.243V5.782L117.275 0.49ZM64.5832 22.2882C61.8692 23.0508 61.251 26.6746 60.6871 29.9797C60.3827 31.7643 60.0941 33.4559 59.5 34.554C58.9059 33.4559 58.6173 31.7643 58.3129 29.9797C57.749 26.6746 57.1308 23.0508 54.4168 22.2882C52.9483 21.8967 50.2372 22.5492 48.8817 23.3321C47.1489 24.3918 47.1636 25.664 47.183 27.3404C47.1851 27.5218 47.1873 27.708 47.1873 27.8991C47.1873 27.8991 47.865 26.5943 48.3169 26.5943C51.4798 26.5943 52.7224 27.8991 52.7224 31.9443C52.7224 33.1187 52.6094 36.6418 50.915 36.6418C47.0707 36.6418 46.1688 33.6835 45.4846 31.4389C45.1836 30.4517 44.9248 29.6026 44.4762 29.204C43.3486 28.1185 41.9083 27.936 40.4804 27.7551C40.1918 27.7185 39.9038 27.682 39.6189 27.6382C27.871 26.0723 14.4286 20.2004 12.7342 19.287C12.1694 19.026 10.2491 18.2431 9.57129 19.026C8.89353 18.6998 7.93338 18.2104 6.97322 17.7211L6.97315 17.7211C6.01299 17.2318 5.05283 16.7424 4.37508 16.4162L4.31101 16.3833C3.2491 15.8372 0.635901 14.4934 0.0825752 16.1553C-0.449428 17.7531 1.72453 19.9297 2.73405 20.9405C2.7963 21.0028 2.85412 21.0607 2.9066 21.1138C4.48806 22.5492 6.29542 23.9845 8.10279 25.0284C9.18641 25.7024 10.7006 26.4475 12.146 27.1588L12.1461 27.1588C12.6595 27.4114 13.1642 27.6598 13.6379 27.8991C12.7301 27.8038 10.9782 27.3602 9.6596 27.0264L9.65954 27.0264L9.65941 27.0263C9.17323 26.9032 8.74598 26.7951 8.44168 26.7248C8.44168 30.6394 19.3989 35.2065 22.5618 36.5113C20.7544 36.3809 16.9137 35.2065 16.9137 35.2065C16.9137 37.2943 19.9637 40.165 21.884 41.0784C24.9767 42.7456 26.8463 43.5433 29.4677 44.6618L29.4679 44.662C29.7189 44.769 29.9767 44.879 30.2431 44.993C29.7913 45.515 27.758 45.6455 27.758 45.6455C30.0172 47.6028 35.4393 48.2552 37.3597 48.1247C37.0208 49.6906 35.4393 50.865 35.4393 50.865C37.5856 52.6918 42.7818 51.3869 43.7984 50.7345C43.9345 51.3633 44.1982 51.8659 44.4576 52.3605C44.8442 53.0976 45.2216 53.8169 45.154 54.9101C47.0743 54.9101 49.5594 53.7357 50.4631 52.3003C50.4631 52.3003 50.802 52.6918 51.0279 53.3442C51.5927 55.0406 50.4631 57.9113 49.8983 58.5638C44.5892 55.5625 47.1873 62.3479 47.1873 62.2174C47.5262 56.3455 50.1243 62.2174 50.1243 62.2174H50.3502C50.3502 59.8686 51.9316 59.0857 52.8353 58.8247C53.626 58.6942 53.852 59.9991 53.852 60.7821C53.852 62.5289 53.1855 64.1474 52.6374 65.4785C52.08 66.8322 51.645 67.8887 52.1575 68.4808C52.8353 69.3942 54.3038 68.7418 54.7556 67.8284C54.4168 69.7857 56.563 70.9601 57.9186 69.1333C57.8826 69.5908 57.9613 69.982 58.1036 70.3027C58.0367 70.4727 58 70.6578 58 70.8516V95.8516C58 96.68 58.6716 97.3516 59.5 97.3516C60.3284 97.3516 61 96.68 61 95.8516V70.8516C61 70.6578 60.9633 70.4727 60.8964 70.3027C61.0387 69.982 61.1174 69.5908 61.0814 69.1333C62.437 70.9601 64.5832 69.7857 64.2444 67.8284C64.6962 68.7418 66.1647 69.3942 66.8425 68.4808C67.355 67.8887 66.92 66.8322 66.3626 65.4785C65.8145 64.1474 65.148 62.5289 65.148 60.7821C65.148 59.9991 65.374 58.6942 66.1647 58.8247C67.0684 59.0857 68.6498 59.8686 68.6498 62.2174H68.8757C68.8757 62.2174 71.4738 56.3455 71.8127 62.2174C71.8127 62.3479 74.4108 55.5625 69.1017 58.5638C68.5369 57.9113 67.4073 55.0406 67.9721 53.3442C68.198 52.6918 68.5369 52.3003 68.5369 52.3003C69.4406 53.7357 71.9257 54.9101 73.846 54.9101C73.7784 53.8169 74.1558 53.0976 74.5424 52.3605C74.8018 51.8659 75.0655 51.3633 75.2016 50.7345C76.2182 51.3869 81.4144 52.6918 83.5607 50.865C83.5607 50.865 81.9792 49.6906 81.6403 48.1247C83.5607 48.2552 88.9828 47.6028 91.242 45.6455C91.242 45.6455 89.2087 45.515 88.7569 44.993C89.0186 44.8811 89.272 44.7729 89.5188 44.6676L89.5323 44.6619C92.1537 43.5434 94.0233 42.7456 97.116 41.0784C99.0363 40.165 102.086 37.2943 102.086 35.2065C102.086 35.2065 98.2456 36.3808 96.4382 36.5113C99.6011 35.2065 110.558 30.6394 110.558 26.7248C110.254 26.7951 109.827 26.9032 109.341 27.0263L109.34 27.0264L109.34 27.0264C108.022 27.3603 106.27 27.8038 105.362 27.8991C105.836 27.6597 106.341 27.4114 106.854 27.1588C108.299 26.4475 109.814 25.7024 110.897 25.0284C112.705 23.9845 114.512 22.5492 116.093 21.1138C116.12 21.0867 116.148 21.0584 116.178 21.0289C116.206 21.0006 116.235 20.9711 116.266 20.9405C117.275 19.9297 119.449 17.7531 118.917 16.1553C118.364 14.4934 115.751 15.8372 114.689 16.3833L114.625 16.4162C113.947 16.7424 112.987 17.2317 112.027 17.7209L112.027 17.7211C111.067 18.2104 110.106 18.6998 109.429 19.026C108.751 18.2431 106.831 19.026 106.266 19.287C104.571 20.2004 91.129 26.0723 79.3811 27.6382C79.0962 27.682 78.8082 27.7185 78.5196 27.7551C77.0917 27.936 75.6514 28.1185 74.5238 29.204C74.0752 29.6026 73.8164 30.4517 73.5154 31.4389C72.8312 33.6835 71.9293 36.6418 68.085 36.6418C66.3906 36.6418 66.2776 33.1187 66.2776 31.9443C66.2776 27.8991 67.5202 26.5943 70.6831 26.5943C71.135 26.5943 71.8127 27.8991 71.8127 27.8991C71.8127 27.708 71.8149 27.5218 71.817 27.3404C71.8364 25.664 71.8511 24.3918 70.1183 23.3321C68.7628 22.5492 66.0517 21.8967 64.5832 22.2882Z" fill="#111111"/>
</svg>
